<svg width="17" height="17" viewBox="0 0 17 17" fill="none" xmlns="http://www.w3.org/2000/svg">
<path d="M3.60221 12.4341H10.9355C11.3022 12.4341 11.6022 12.1341 11.6022 11.7674C11.6022 11.4008 11.3022 11.1008 10.9355 11.1008H3.60221C3.23555 11.1008 2.93555 11.4008 2.93555 11.7674C2.93555 12.1341 3.23555 12.4341 3.60221 12.4341ZM3.60221 9.10078H8.93555C9.30221 9.10078 9.60221 8.80078 9.60221 8.43411C9.60221 8.06745 9.30221 7.76745 8.93555 7.76745H3.60221C3.23555 7.76745 2.93555 8.06745 2.93555 8.43411C2.93555 8.80078 3.23555 9.10078 3.60221 9.10078ZM2.93555 5.10078C2.93555 5.46745 3.23555 5.76745 3.60221 5.76745H10.9355C11.3022 5.76745 11.6022 5.46745 11.6022 5.10078C11.6022 4.73411 11.3022 4.43411 10.9355 4.43411H3.60221C3.23555 4.43411 2.93555 4.73411 2.93555 5.10078ZM14.4689 10.3541L12.5489 8.43411L14.4689 6.51411C14.7289 6.25411 14.7289 5.83411 14.4689 5.57411C14.2089 5.31411 13.7889 5.31411 13.5289 5.57411L11.1355 7.96745C10.8755 8.22745 10.8755 8.64745 11.1355 8.90745L13.5289 11.3008C13.7889 11.5608 14.2089 11.5608 14.4689 11.3008C14.7222 11.0408 14.7289 10.6141 14.4689 10.3541Z" fill="white"/>
</svg>
